<svg xmlns="http://www.w3.org/2000/svg" xmlns:xlink="http://www.w3.org/1999/xlink" width="25" height="34">
    <defs>
        <path id="a" d="M0 .024h24.244v30.803H0z"/><path id="c" d="M0 .024h3.939v28.333H0z"/>
    </defs>
    <g fill="none" fill-rule="evenodd" transform="translate(-135 0)">
        <g transform="translate(135 .063)">
            <mask id="b" fill="#fff"><use xlink:href="#a"/></mask>
            <path d="M22.776 29.358H3.204a1.737 1.737 0 01-1.735-1.735c0-.957.778-1.735 1.735-1.735h19.572v3.47zm1.468-28.6a.734.734 0 00-.734-.735H3.204a.734.734 0 00-.734.735v23.747A3.21 3.21 0 000 27.623a3.208 3.208 0 003.204 3.204H23.51a.734.734 0 00.734-.734v-4.94a.733.733 0 00-.006-.092.738.738 0 00.006-.092V.758z" fill="#00F" mask="url(#b)"/>
        </g>
        <g transform="translate(135 .063)">
            <mask id="d" fill="#fff"><use xlink:href="#c"/></mask>
            <path d="M3.204.023A3.208 3.208 0 000 3.228v24.395a.734.734 0 101.469 0c0-.957.778-1.735 1.735-1.735a.734.734 0 00.735-.735V.758a.734.734 0 00-.735-.735" fill="#0000C2" mask="url(#d)"/>
        </g>
        <path d="M154.138 10.379h-11.93a.505.505 0 01-.506-.505V6.44c0-.279.226-.505.505-.505h11.931c.28 0 .505.226.505.505v3.434a.505.505 0 01-.505.505" fill="#0FF"/>
        <path d="M155.713 27.733h-4.923a.26.26 0 00-.26.26v5.766a.26.26 0 00.38.23l2.342-1.228 2.34 1.227a.26.26 0 00.38-.23v-5.766a.26.26 0 00-.259-.259" fill="#F0F"/>
    </g>
</svg>